<svg width="17" height="16" fill="none" xmlns="http://www.w3.org/2000/svg"><path d="M16.072 6.746h.017c.29 0 .553.12.74.314.194.188.314.45.314.741v.018-.001.017c0 .29-.12.553-.314.74a1.03 1.03 0 01-.74.314h-.143l-.963 5.543c-.041.25-.172.475-.367.635h-.002a1.04 1.04 0 01-.678.252H3.206c-.26 0-.497-.096-.68-.252h.002a1.034 1.034 0 01-.367-.63l-.001-.005-.963-5.543h-.143c-.29 0-.553-.12-.74-.314A1.03 1.03 0 010 7.834V7.8c0-.29.12-.553.314-.74a1.03 1.03 0 01.741-.315h.018-.001l15 .001zM4.058 13.442a.512.512 0 00.363-.187.514.514 0 00.13-.392v.002l-.268-3.483a.515.515 0 00-.187-.363h-.001a.515.515 0 00-.391-.13h.002a.514.514 0 00-.364.187.514.514 0 00-.13.392v-.002l.268 3.482c.009.136.07.262.171.352a.519.519 0 00.358.143h.049zm3.44-.535V9.42a.51.51 0 00-.159-.371.512.512 0 00-.372-.16h-.01a.51.51 0 00-.37.16.512.512 0 00-.16.371v3.493c0 .146.061.278.16.371a.513.513 0 00.371.159h.01a.51.51 0 00.371-.159.513.513 0 00.162-.374v-.003h-.003zm3.215 0V9.42a.51.51 0 00-.16-.371.512.512 0 00-.371-.16h-.01a.51.51 0 00-.371.16.513.513 0 00-.16.371v3.493c0 .146.062.278.16.371a.513.513 0 00.371.159h.01a.51.51 0 00.372-.159.515.515 0 00.161-.374v-.003h-.002zm2.946.041l.268-3.482a.52.52 0 00-.13-.39.516.516 0 00-.362-.188h-.002a.519.519 0 00-.39.13.516.516 0 00-.188.362v.002l-.268 3.482a.517.517 0 00.13.39.517.517 0 00.362.188h.05a.52.52 0 00.358-.142.52.52 0 00.174-.353v-.002l-.002.003zM3.985 2.761L3.207 6.21H2.102l.845-3.692a2.04 2.04 0 01.739-1.196l.004-.004A2.082 2.082 0 015.007.853h.024-.002 1.398V.848a.51.51 0 01.159-.37.513.513 0 01.372-.16h3.226a.51.51 0 01.372.159.513.513 0 01.158.371v.005h1.421c.5 0 .96.175 1.32.468l-.004-.003c.38.296.642.716.74 1.187l.003.013.845 3.691h-1.105l-.778-3.449a1.104 1.104 0 00-.379-.6l-.001-.003a1.024 1.024 0 00-.654-.234h-1.41v.005a.51.51 0 01-.158.371.512.512 0 01-.372.159H6.958a.51.51 0 01-.371-.159.512.512 0 01-.159-.372v-.005h-1.41c-.238 0-.47.083-.654.236l.002-.001a1.1 1.1 0 00-.377.596l-.002.007-.002.001z" fill="#062748" fill-opacity=".7"/></svg>