<svg width="35" height="24" fill="none" xmlns="http://www.w3.org/2000/svg"><path fill-rule="evenodd" clip-rule="evenodd" d="M16.533.033c-.207.012-.745.067-1.197.12-2.9.35-4.854 1.135-5.374 2.16-.15.296-.153.327-.108 2.087L9.9 6.186l-.36-.051c-.676-.096-2.3-.055-2.89.073-2.462.536-4.39 1.883-5.605 3.915-1.32 2.208-1.396 5.131-.193 7.404.599 1.13 1.616 2.271 2.64 2.96 2.86 1.924 6.665 1.955 9.547.077l.575-.375.53.102c.718.138 2.04.284 3.052.338l.834.044.179.348c.486.946 2.104 1.662 4.62 2.043 3.819.579 8.203.202 10.633-.913.611-.28 1.336-.948 1.456-1.339.06-.196.083-1.322.082-4.173v-3.905l-.16-.327c-.42-.857-1.789-1.544-3.898-1.955-.763-.15-2.08-.302-3.414-.397l-.53-.038V6.455c0-3.16-.013-3.595-.114-3.858-.232-.602-.642-.995-1.46-1.4-1.112-.55-3.095-.99-5.156-1.144-.814-.06-2.846-.072-3.735-.02zm2.902 1.323c1.377.07 2.006.14 3.049.336 1.673.315 3.132.96 2.987 1.321-.122.303-1.152.76-2.353 1.045-2.536.6-6.295.655-9.011.129-1.272-.246-2.574-.763-2.824-1.121-.096-.139-.092-.162.06-.316.255-.26.65-.454 1.428-.702 1.218-.386 2.536-.599 4.275-.688.527-.027 1.004-.053 1.06-.057.057-.005.655.02 1.329.053zM9.728 7.53a6.899 6.899 0 014.84 3.574c1.06 2.019.93 4.471-.34 6.417-.384.587-1.256 1.473-1.84 1.871-1.355.923-3.16 1.378-4.76 1.201-1.629-.18-2.943-.761-4.1-1.813a6.42 6.42 0 01-2.104-4.17c-.406-4.446 3.678-7.929 8.304-7.08zm15.834 1.673v.87l-.872.043c-1.711.084-3.636.444-4.765.892-.538.214-1.239.615-1.4.802-.078.091-.231.11-.931.11-.952 0-1.266-.043-1.266-.171 0-.187-.51-1.292-.83-1.8a20.789 20.789 0 01-.333-.537c0-.006.177.013.394.042.787.103 3.803.139 4.815.057 2.15-.173 3.575-.495 5.17-1.17.01-.005.018.384.018.862zM8.135 8.607c-.267.068-.493.38-.493.682 0 .188-.037.222-.428.397a2.522 2.522 0 00-1.242 1.19c-.193.386-.211.482-.211 1.076 0 .568.023.698.178 1.01.246.495.66.918 1.134 1.158.355.18.679.26 1.582.384.291.04.734.42.837.72.264.762-.335 1.58-1.162 1.584-.578.004-1.14-.483-1.217-1.053-.074-.554-.282-.771-.738-.771-.186 0-.301.05-.456.198-.197.188-.206.22-.181.636.052.86.67 1.718 1.501 2.082l.388.17.028.421c.025.377.052.443.248.61.539.458 1.175.051 1.175-.752 0-.289.003-.292.371-.453 1.044-.455 1.692-1.624 1.479-2.668a2.613 2.613 0 00-1.435-1.84c-.215-.103-.599-.204-.995-.26-.718-.103-.81-.138-1.074-.404-.831-.837.051-2.22 1.224-1.918.151.039.357.132.457.207.22.165.452.579.452.808 0 .252.174.6.344.687.216.11.568.095.773-.033.257-.16.343-.47.255-.92A2.577 2.577 0 009.47 9.68c-.322-.146-.391-.206-.391-.34 0-.196-.16-.582-.269-.645a.99.99 0 00-.674-.088zm19.992 2.857c2.41.167 4.484.675 5.222 1.278.34.277.316.365-.184.67-1.965 1.202-7.662 1.581-11.344.755-1.21-.272-2.297-.741-2.483-1.072-.066-.119-.047-.165.136-.328.707-.63 2.71-1.124 5.37-1.326.624-.048 2.454-.035 3.283.022zm-10.264 1.834c.012.013.045.547.072 1.186l.05 1.164-.709-.047a9.476 9.476 0 01-.729-.063c-.01-.009.012-.203.051-.432.04-.228.071-.75.072-1.158v-.743l.585.035c.323.02.596.045.608.058zm.081 3.667c.005.005.02.536.034 1.181l.026 1.174-.65-.02c-.614-.02-2.47-.195-2.515-.237-.011-.01.15-.255.358-.543.208-.288.506-.776.66-1.085l.283-.56.898.042c.493.022.901.044.906.048zm15.567 3.555c-.431.55-2.438 1.146-4.666 1.384-1.116.119-3.849.102-4.974-.03-2.147-.253-3.821-.759-4.297-1.298-.161-.183-.168-.228-.168-1.13 0-.518.024-.941.053-.941.029 0 .27.088.538.195 1.348.54 3.337.848 5.788.897 3.034.06 5.493-.268 7.198-.96l.616-.25.019.987c.016.872.004 1.005-.107 1.146z" fill="#1FC7BD"/></svg>