<svg width="55" height="55" fill="none" xmlns="http://www.w3.org/2000/svg"><ellipse cx="27.5" cy="27.375" rx="27.5" ry="27.375" fill="#00C8C8"/><path fill-rule="evenodd" clip-rule="evenodd" d="M27.5 55V.249C42.688.249 55 12.505 55 27.625 55 42.742 42.688 55 27.5 55z" fill="#64E1DC"/><ellipse cx="27.156" cy="27.033" rx="20.281" ry="20.189" fill="#EDF5FF"/><path fill="#5690C7" d="M25.437 9.582h3.438v3.422h-3.438zM8.938 25.322h3.438v3.422H8.938zm32.312 0h3.438v3.422H41.25zM25.437 40.379h3.438v3.422h-3.438z"/><path fill="#1D24CB" d="M20.564 19.951l11.005 11.24-1.97 1.911-11.004-11.24z"/><path fill="#5690C7" d="M36.318 17.425L24.167 32.928l-2.168-1.684 12.152-15.503z"/></svg>