<svg width="15" height="15" fill="none" xmlns="http://www.w3.org/2000/svg"><path d="M0 2.192A1.875 1.875 0 011.875.317h11.25A1.875 1.875 0 0115 2.192v7.5a1.875 1.875 0 01-1.875 1.875h-2.344a.937.937 0 00-.75.375L8.25 14.317a.938.938 0 01-1.5 0l-1.781-2.375a.938.938 0 00-.75-.375H1.875A1.875 1.875 0 010 9.692v-7.5zm4.688 3.75a.937.937 0 10-1.875 0 .937.937 0 001.874 0zm3.75 0a.937.937 0 10-1.875 0 .937.937 0 001.875 0zm2.812.937a.938.938 0 100-1.875.938.938 0 000 1.875z" fill="#062748" fill-opacity=".7"/></svg>