<svg width="15" height="15" fill="none" xmlns="http://www.w3.org/2000/svg"><path d="M7.174.621c-.978 0-1.743.36-2.293 1.08-.55.72-.825 1.64-.825 2.762-.007 1.392.441 2.496 1.345 3.312a.423.423 0 01.122.417l-.234.49a.866.866 0 01-.331.382c-.147.091-.454.222-.923.392l-1.289.418c-.839.271-1.285.421-1.34.448-.57.238-.944.486-1.12.744-.19.428-.286 1.512-.286 3.25h14.348c0-1.738-.095-2.822-.286-3.25-.176-.258-.55-.506-1.12-.744-.055-.027-.501-.176-1.34-.448l-1.29-.418c-.468-.17-.776-.3-.922-.392a.866.866 0 01-.33-.382l-.235-.49a.423.423 0 01.122-.417c.904-.816 1.352-1.92 1.345-3.312 0-1.121-.275-2.042-.825-2.762-.55-.72-1.315-1.08-2.293-1.08z" fill="#062748" fill-opacity=".7"/></svg>