<svg width="13" height="13" viewBox="0 0 13 13" fill="none" xmlns="http://www.w3.org/2000/svg">
<path d="M11.6562 3.06683H9.27266C9.16199 2.41152 8.8228 1.81659 8.31525 1.38756C7.80769 0.958535 7.16459 0.723145 6.5 0.723145C5.83541 0.723145 5.19231 0.958535 4.68475 1.38756C4.1772 1.81659 3.83801 2.41152 3.72734 3.06683H1.34375C1.0952 3.06711 0.856901 3.16597 0.681146 3.34173C0.505391 3.51748 0.406529 3.75578 0.40625 4.00433V11.5043C0.406529 11.7529 0.505391 11.9912 0.681146 12.1669C0.856901 12.3427 1.0952 12.4416 1.34375 12.4418H11.6562C11.9048 12.4416 12.1431 12.3427 12.3189 12.1669C12.4946 11.9912 12.5935 11.7529 12.5938 11.5043V4.00433C12.5935 3.75578 12.4946 3.51748 12.3189 3.34173C12.1431 3.16597 11.9048 3.06711 11.6562 3.06683ZM4.62453 5.41058C4.62453 5.5349 4.57515 5.65413 4.48724 5.74204C4.39933 5.82994 4.2801 5.87933 4.15578 5.87933C4.03146 5.87933 3.91223 5.82994 3.82432 5.74204C3.73642 5.65413 3.68703 5.5349 3.68703 5.41058V4.47308C3.68703 4.34876 3.73642 4.22953 3.82432 4.14162C3.91223 4.05372 4.03146 4.00433 4.15578 4.00433C4.2801 4.00433 4.39933 4.05372 4.48724 4.14162C4.57515 4.22953 4.62453 4.34876 4.62453 4.47308V5.41058ZM4.6843 3.06683C4.78824 2.66431 5.02299 2.30774 5.35165 2.05317C5.68031 1.7986 6.08425 1.66046 6.49997 1.66046C6.91569 1.66046 7.31963 1.7986 7.64829 2.05317C7.97695 2.30774 8.2117 2.66431 8.31564 3.06683H4.6843ZM9.31203 5.41058C9.31203 5.5349 9.26264 5.65413 9.17474 5.74204C9.08683 5.82994 8.9676 5.87933 8.84328 5.87933C8.71896 5.87933 8.59973 5.82994 8.51182 5.74204C8.42392 5.65413 8.37453 5.5349 8.37453 5.41058V4.47308C8.37453 4.34876 8.42392 4.22953 8.51182 4.14162C8.59973 4.05372 8.71896 4.00433 8.84328 4.00433C8.9676 4.00433 9.08683 4.05372 9.17474 4.14162C9.26264 4.22953 9.31203 4.34876 9.31203 4.47308V5.41058Z" fill="#062748" fill-opacity="0.7"/>
</svg>
