<svg width="17" height="16" viewBox="0 0 17 16" fill="none" xmlns="http://www.w3.org/2000/svg">
<path d="M16.0719 6.746H16.0887C16.3794 6.746 16.6419 6.866 16.8294 7.05975C17.0231 7.24787 17.1431 7.51037 17.1431 7.801V7.8185V7.81787V7.83475C17.1431 8.12537 17.0231 8.38787 16.8294 8.57537C16.6412 8.76912 16.3787 8.88912 16.0881 8.88912H16.0706H16.0712H15.9456L14.9825 14.4322C14.9417 14.6814 14.8112 14.907 14.6156 15.0666L14.6137 15.0679C14.4325 15.2235 14.195 15.3185 13.9356 15.3185H3.20625C2.94688 15.3185 2.70938 15.2235 2.52688 15.0666L2.52813 15.0679C2.33315 14.9095 2.20251 14.6855 2.16063 14.4379L2.16 14.4316L1.19688 8.8885H1.05438C0.763751 8.8885 0.501251 8.7685 0.313751 8.57475C0.214343 8.47861 0.135327 8.36342 0.0814205 8.23606C0.0275144 8.10871 -0.000176623 7.97179 8.47673e-07 7.8335V7.816V7.79975C8.47673e-07 7.50912 0.120001 7.24662 0.313751 7.05912C0.501876 6.86537 0.764376 6.74537 1.055 6.74537H1.0725H1.07188L16.0719 6.746ZM4.0575 13.4422C4.12763 13.4375 4.19603 13.4184 4.25848 13.3861C4.32094 13.3539 4.37612 13.3092 4.42063 13.2547L4.42125 13.2541C4.46873 13.2014 4.50479 13.1394 4.52716 13.0721C4.54954 13.0048 4.55774 12.9335 4.55125 12.8629V12.8647L4.28313 9.38225C4.27834 9.31212 4.25923 9.24372 4.22699 9.18126C4.19474 9.11881 4.15003 9.06363 4.09563 9.01912L4.095 9.0185C4.04228 8.97102 3.9803 8.93496 3.91297 8.91258C3.84564 8.89021 3.77441 8.88201 3.70375 8.8885H3.70563C3.6355 8.89328 3.5671 8.91239 3.50464 8.94464C3.44219 8.97689 3.38701 9.02159 3.3425 9.076L3.34188 9.07662C3.29439 9.12935 3.25833 9.19132 3.23596 9.25865C3.21359 9.32599 3.20539 9.39722 3.21188 9.46787V9.466L3.48 12.9485C3.48892 13.0835 3.5504 13.2096 3.65125 13.2997L3.65188 13.3004C3.74836 13.392 3.87635 13.443 4.00938 13.4429H4.01625H4.01563L4.0575 13.4422ZM7.49813 12.9072V9.42475V9.41975C7.49833 9.35032 7.48435 9.28158 7.45705 9.21774C7.42976 9.15391 7.38971 9.09632 7.33938 9.0485C7.2914 8.9982 7.23369 8.95819 7.16975 8.9309C7.10582 8.90361 7.03701 8.88961 6.9675 8.88975H6.9575C6.88807 8.88955 6.81933 8.90352 6.7555 8.93082C6.69166 8.95812 6.63407 8.99816 6.58625 9.0485C6.53595 9.09648 6.49594 9.15419 6.46865 9.21812C6.44136 9.28205 6.42736 9.35086 6.4275 9.42037V12.9129C6.4275 13.0591 6.48812 13.191 6.58625 13.2841C6.63423 13.3344 6.69194 13.3744 6.75587 13.4017C6.8198 13.429 6.88861 13.443 6.95813 13.4429H6.96812C7.03755 13.4431 7.10629 13.4291 7.17013 13.4018C7.23397 13.3745 7.29156 13.3345 7.33938 13.2841C7.39036 13.2361 7.43096 13.1782 7.4587 13.1139C7.48643 13.0497 7.5007 12.9804 7.50063 12.9104V12.9066L7.49813 12.9072ZM10.7125 12.9072V9.42475V9.41975C10.7127 9.35032 10.6987 9.28158 10.6714 9.21774C10.6441 9.15391 10.6041 9.09632 10.5538 9.0485C10.5058 8.9982 10.4481 8.95819 10.3841 8.9309C10.3202 8.90361 10.2514 8.88961 10.1819 8.88975H10.1719C10.1024 8.88955 10.0337 8.90352 9.96987 8.93082C9.90603 8.95812 9.84844 8.99816 9.80062 9.0485C9.75033 9.09648 9.71032 9.15419 9.68303 9.21812C9.65574 9.28205 9.64173 9.35086 9.64187 9.42037V12.9129C9.64187 13.0591 9.7025 13.191 9.80062 13.2841C9.84861 13.3344 9.90631 13.3744 9.97025 13.4017C10.0342 13.429 10.103 13.443 10.1725 13.4429H10.1825C10.2519 13.4431 10.3207 13.4291 10.3845 13.4018C10.4483 13.3745 10.5059 13.3345 10.5538 13.2841C10.6047 13.2361 10.6453 13.1782 10.6731 13.1139C10.7008 13.0497 10.7151 12.9804 10.715 12.9104V12.9066L10.7125 12.9072ZM13.6587 12.9485L13.9269 9.466C13.9329 9.39556 13.9245 9.32464 13.9022 9.25757C13.8798 9.19051 13.844 9.12872 13.7969 9.076L13.7975 9.07662C13.7531 9.02215 13.6981 8.9773 13.6357 8.94485C13.5734 8.91239 13.5051 8.89301 13.435 8.88787H13.4331C13.3627 8.88182 13.2918 8.89024 13.2247 8.91259C13.1576 8.93495 13.0958 8.97077 13.0431 9.01787L13.0437 9.01725C12.9893 9.06164 12.9444 9.11669 12.912 9.17902C12.8795 9.24136 12.8601 9.30966 12.855 9.37975V9.38162L12.5869 12.8641C12.5808 12.9346 12.5892 13.0055 12.6116 13.0726C12.6339 13.1396 12.6698 13.2014 12.7169 13.2541L12.7162 13.2535C12.7606 13.308 12.8157 13.3528 12.878 13.3853C12.9404 13.4177 13.0087 13.4371 13.0787 13.4422H13.1287C13.2619 13.4423 13.3901 13.3913 13.4869 13.2997C13.589 13.2097 13.6516 13.0831 13.6613 12.9472V12.9454L13.6587 12.9485ZM3.985 2.761L3.20688 6.20975H2.10188L2.94688 2.5185C3.04875 2.02787 3.31563 1.61225 3.68563 1.32162L3.69 1.3185C4.06235 1.01654 4.52748 0.852302 5.00688 0.853497H5.03063H5.02938H6.42688V0.848497C6.42688 0.702247 6.4875 0.570372 6.58563 0.477247C6.63365 0.426789 6.69144 0.386637 6.75548 0.359237C6.81952 0.331837 6.88847 0.317763 6.95813 0.317872H10.1844C10.3306 0.317872 10.4625 0.378497 10.5556 0.476622C10.6059 0.524602 10.6459 0.582312 10.6732 0.646242C10.7005 0.710172 10.7145 0.778985 10.7144 0.848497V0.853497H12.135C12.6356 0.853497 13.095 1.0285 13.455 1.321L13.4512 1.31787C13.8304 1.61376 14.0927 2.03415 14.1919 2.50475L14.1944 2.51787L15.0394 6.20912H13.9344L13.1562 2.76037C13.0997 2.5237 12.9665 2.31234 12.7775 2.15912L12.7756 2.15725C12.5917 2.00534 12.3604 1.92244 12.1219 1.92287H10.7125V1.92787C10.7127 1.9973 10.6987 2.06604 10.6714 2.12988C10.6441 2.19371 10.6041 2.25131 10.5538 2.29912C10.5058 2.34942 10.4481 2.38943 10.3841 2.41672C10.3202 2.44401 10.2514 2.45801 10.1819 2.45787H6.95813C6.8887 2.45807 6.81996 2.4441 6.75612 2.4168C6.69228 2.3895 6.63469 2.34946 6.58688 2.29912C6.53658 2.25114 6.49657 2.19343 6.46928 2.1295C6.44198 2.06557 6.42798 1.99676 6.42813 1.92725V1.92225H5.01875C4.77962 1.92198 4.54791 2.00533 4.36375 2.15787L4.36563 2.15662C4.17796 2.30861 4.04552 2.51814 3.98875 2.75287L3.9875 2.76037L3.985 2.761Z" fill="#062748" fill-opacity="0.7"/>
</svg>
