<svg width="15" height="15" viewBox="0 0 15 15" fill="none" xmlns="http://www.w3.org/2000/svg">
<path d="M0 2.19189C0 1.69461 0.197544 1.2177 0.549175 0.866069C0.900806 0.514439 1.37772 0.316895 1.875 0.316895L13.125 0.316895C13.6223 0.316895 14.0992 0.514439 14.4508 0.866069C14.8025 1.2177 15 1.69461 15 2.19189V9.69189C15 10.1892 14.8025 10.6661 14.4508 11.0177C14.0992 11.3693 13.6223 11.5669 13.125 11.5669H10.7812C10.6357 11.5669 10.4922 11.6008 10.362 11.6659C10.2318 11.731 10.1186 11.8255 10.0312 11.9419L8.25 14.3166C8.16267 14.433 8.04944 14.5275 7.91926 14.5926C7.78909 14.6577 7.64554 14.6916 7.5 14.6916C7.35446 14.6916 7.21091 14.6577 7.08074 14.5926C6.95056 14.5275 6.83733 14.433 6.75 14.3166L4.96875 11.9419C4.88142 11.8255 4.76819 11.731 4.63801 11.6659C4.50784 11.6008 4.36429 11.5669 4.21875 11.5669H1.875C1.37772 11.5669 0.900806 11.3693 0.549175 11.0177C0.197544 10.6661 0 10.1892 0 9.69189V2.19189ZM4.6875 5.94189C4.6875 5.69325 4.58873 5.4548 4.41291 5.27898C4.2371 5.10317 3.99864 5.00439 3.75 5.00439C3.50136 5.00439 3.2629 5.10317 3.08709 5.27898C2.91127 5.4548 2.8125 5.69325 2.8125 5.94189C2.8125 6.19053 2.91127 6.42899 3.08709 6.60481C3.2629 6.78062 3.50136 6.87939 3.75 6.87939C3.99864 6.87939 4.2371 6.78062 4.41291 6.60481C4.58873 6.42899 4.6875 6.19053 4.6875 5.94189ZM8.4375 5.94189C8.4375 5.69325 8.33873 5.4548 8.16291 5.27898C7.9871 5.10317 7.74864 5.00439 7.5 5.00439C7.25136 5.00439 7.0129 5.10317 6.83709 5.27898C6.66127 5.4548 6.5625 5.69325 6.5625 5.94189C6.5625 6.19053 6.66127 6.42899 6.83709 6.60481C7.0129 6.78062 7.25136 6.87939 7.5 6.87939C7.74864 6.87939 7.9871 6.78062 8.16291 6.60481C8.33873 6.42899 8.4375 6.19053 8.4375 5.94189ZM11.25 6.87939C11.4986 6.87939 11.7371 6.78062 11.9129 6.60481C12.0887 6.42899 12.1875 6.19053 12.1875 5.94189C12.1875 5.69325 12.0887 5.4548 11.9129 5.27898C11.7371 5.10317 11.4986 5.00439 11.25 5.00439C11.0014 5.00439 10.7629 5.10317 10.5871 5.27898C10.4113 5.4548 10.3125 5.69325 10.3125 5.94189C10.3125 6.19053 10.4113 6.42899 10.5871 6.60481C10.7629 6.78062 11.0014 6.87939 11.25 6.87939Z" fill="#062748" fill-opacity="0.7"/>
</svg>
