<svg width="13" height="14" viewBox="0 0 13 14" fill="none" xmlns="http://www.w3.org/2000/svg">
<path d="M6.5 0.566895C3.04813 0.566895 0.25 3.36502 0.25 6.81689C0.25 10.2688 3.04813 13.0669 6.5 13.0669C9.95187 13.0669 12.75 10.2688 12.75 6.81689C12.75 3.36502 9.95187 0.566895 6.5 0.566895ZM7.125 10.5669H5.875V9.31689H7.125V10.5669ZM7.125 7.97877V8.69189H5.875V7.44189C5.875 7.27613 5.94085 7.11716 6.05806 6.99995C6.17527 6.88274 6.33424 6.81689 6.5 6.81689C7.18937 6.81689 7.75 6.25627 7.75 5.56689C7.75 4.87752 7.18937 4.31689 6.5 4.31689C5.81063 4.31689 5.25 4.87752 5.25 5.56689H4C4 4.90385 4.26339 4.26797 4.73223 3.79913C5.20107 3.33029 5.83696 3.06689 6.5 3.06689C7.16304 3.06689 7.79893 3.33029 8.26777 3.79913C8.73661 4.26797 9 4.90385 9 5.56689C8.99903 6.11988 8.81433 6.65687 8.47493 7.09345C8.13553 7.53004 7.66067 7.84146 7.125 7.97877Z" fill="#062748" fill-opacity="0.7"/>
</svg>
