<svg width="15" height="15" viewBox="0 0 15 15" fill="none" xmlns="http://www.w3.org/2000/svg">
<path d="M7.17391 0.621094C6.19565 0.621094 5.43139 0.981148 4.88111 1.70126C4.33084 2.42137 4.05571 3.34188 4.05571 4.46281C4.04891 5.85547 4.49728 6.95941 5.40082 7.77463C5.5163 7.88332 5.55707 8.02259 5.5231 8.19242L5.28872 8.68155C5.21399 8.8446 5.1036 8.97198 4.95754 9.06369C4.81148 9.1554 4.50408 9.28617 4.03533 9.45601C4.01495 9.4628 3.58526 9.60207 2.74626 9.87381C1.90727 10.1455 1.4606 10.295 1.40625 10.3222C0.835598 10.56 0.461957 10.8079 0.285326 11.0661C0.0951087 11.4941 0 12.5776 0 14.3167H14.3478C14.3478 12.5776 14.2527 11.4941 14.0625 11.0661C13.8859 10.8079 13.5122 10.56 12.9416 10.3222C12.8872 10.295 12.4406 10.1455 11.6016 9.87381C10.7626 9.60207 10.3329 9.4628 10.3125 9.45601C9.84375 9.28617 9.53635 9.1554 9.39029 9.06369C9.24423 8.97198 9.13383 8.8446 9.0591 8.68155L8.82473 8.19242C8.79076 8.02259 8.83152 7.88332 8.94701 7.77463C9.85054 6.95941 10.2989 5.85547 10.2921 4.46281C10.2921 3.34188 10.017 2.42137 9.46671 1.70126C8.91644 0.981148 8.15217 0.621094 7.17391 0.621094Z" fill="#062748" fill-opacity="0.7"/>
</svg>
